if (_typeface_js && _typeface_js.loadFace) _typeface_js.loadFace({"glyphs":{"0":{"ha":435,"x_min":-59,"x_max":427,"o":"m 277 648 q 239 378 265 505 q 121 108 198 183 q 105 134 113 117 q 88 268 87 175 q 148 621 91 435 q 267 865 197 782 q 279 805 274 842 q 277 648 286 746 m 370 969 q 276 960 349 986 q 229 926 227 942 q 186 903 203 918 q 22 646 88 826 q -51 320 -32 499 q -56 180 -59 243 q -16 60 -52 96 q 45 39 2 41 q 180 71 98 37 q 300 178 248 98 q 378 385 347 250 q 411 584 399 475 q 427 789 427 723 q 370 969 426 920 z "},"1":{"ha":378,"x_min":-12,"x_max":337,"o":"m 255 956 q 205 940 243 953 q 162 928 174 930 q 65 893 93 919 q 68 873 50 879 q 99 871 83 869 q 180 888 133 875 q 86 481 144 745 q -6 75 25 199 q 52 62 -12 50 q 107 79 82 67 q 137 101 135 92 q 233 524 168 222 q 332 947 292 795 q 300 964 337 966 q 255 956 279 962 z "},"2":{"ha":475,"x_min":-138,"x_max":482,"o":"m 260 111 q 264 111 263 111 q 260 111 262 111 l 260 111 m 161 252 q 292 403 233 326 q 463 759 421 571 q 452 901 482 842 q 313 953 417 969 q 127 853 198 934 q 41 703 78 796 q -9 521 9 621 q 50 507 -13 496 q 104 525 79 513 q 134 547 133 538 q 253 857 170 743 q 283 890 266 874 q 286 888 285 888 q 325 764 330 856 q 270 579 321 698 q 172 409 234 496 q 47 258 123 338 q -29 184 28 239 q -102 109 -77 139 q -129 75 -117 92 q -107 60 -138 62 q -71 62 -84 59 q -1 64 -46 67 q 89 56 6 64 q 303 77 205 43 q 336 93 319 83 q 347 117 361 109 q 259 111 323 132 q 254 110 256 111 q 223 111 246 110 q 143 118 204 111 q 31 123 79 125 q 95 189 54 151 q 161 252 149 240 z "},"3":{"ha":462,"x_min":-75,"x_max":489,"o":"m 410 581 q 469 862 489 742 q 409 962 458 924 q 262 972 361 1000 q 53 782 125 935 q 20 625 8 687 q 98 620 25 602 q 165 663 170 638 q 238 880 148 753 q 269 916 251 899 q 305 876 290 902 q 292 612 357 787 q 149 389 235 461 q 117 368 132 380 q 115 350 105 357 q 136 345 122 345 q 177 349 156 344 q 191 319 182 340 q 205 235 208 274 q 132 92 199 155 q 125 85 128 88 q 91 115 105 94 q 99 256 49 176 q 77 271 108 270 q 41 269 57 272 q -44 230 -27 257 q -71 129 -75 181 q -20 41 -66 71 q 106 27 23 12 q 264 104 199 43 q 334 204 310 146 q 347 324 359 266 q 296 414 334 395 q 296 414 297 414 q 410 581 357 471 z "},"4":{"ha":399,"x_min":-61,"x_max":399,"o":"m 336 685 q 280 668 305 680 q 250 646 252 655 q 178 376 233 569 q 147 371 161 373 q 136 369 142 370 l 136 369 q 126 368 134 369 q 116 368 117 368 q 106 368 108 368 q 99 370 98 370 q 90 384 92 373 q 104 463 87 403 q 130 547 109 482 q 156 654 137 566 q 243 972 201 860 q 220 989 249 987 q 185 985 205 989 q 100 946 110 972 q 7 601 57 834 q -20 503 -1 565 q -47 406 -40 435 q -52 334 -61 349 q 30 309 -34 307 q 162 326 84 311 q 163 327 162 326 q 163 327 163 327 q 99 43 116 157 q 135 35 97 31 q 177 41 161 37 q 244 82 240 58 q 308 360 260 193 q 343 387 335 371 q 320 402 351 401 q 393 672 376 597 q 336 685 399 696 z "},"5":{"ha":504,"x_min":-27,"x_max":483,"o":"m 465 425 q 397 541 455 499 q 224 558 338 585 q 182 545 202 553 q 231 855 190 705 q 313 846 273 852 q 414 865 360 840 q 439 884 428 872 q 432 902 454 899 q 250 918 336 915 q 254 927 255 932 q 196 941 262 952 q 111 901 119 926 q 109 895 112 905 q 102 891 102 892 q 86 873 87 882 q 98 861 85 865 q 35 434 35 657 q 94 427 35 416 q 172 459 155 438 q 225 509 201 492 q 260 492 243 504 q 298 451 281 478 q 274 201 360 347 q 205 106 241 146 q 177 79 192 92 q 130 151 145 96 q 125 214 122 180 q 132 237 126 222 q 140 250 133 241 q 129 244 141 250 q 154 262 145 252 q 146 281 168 277 q 45 262 101 291 q -20 141 -27 225 q 45 28 -14 60 q 238 45 115 -11 q 362 147 302 73 q 465 425 483 296 z "},"6":{"ha":466,"x_min":-35,"x_max":508,"o":"m 212 417 q 218 420 212 416 q 220 421 219 420 q 224 417 222 419 q 229 414 227 416 q 231 412 230 413 q 231 412 231 412 q 240 298 257 376 q 180 154 224 222 q 161 128 172 142 q 159 130 159 131 q 123 202 140 151 q 114 388 104 258 q 114 389 114 387 q 212 417 165 389 m 211 425 q 208 425 210 425 q 210 425 210 425 l 211 425 m 235 428 q 235 428 237 429 q 235 428 235 428 m 450 997 q 315 1018 412 1039 q 180 956 233 1000 q 62 770 115 903 q -10 509 17 659 q -35 264 -35 372 q 6 102 -34 163 q 168 62 54 28 q 318 172 262 90 q 390 415 407 302 q 275 483 377 495 q 117 429 205 474 q 157 648 129 536 q 248 887 195 792 q 301 959 274 932 q 334 868 334 941 q 311 741 335 814 q 369 728 302 715 q 454 767 446 742 q 450 997 508 932 z "},"7":{"ha":375,"x_min":-109,"x_max":431,"o":"m 416 937 q 286 948 363 955 q 219 940 264 946 q 153 933 176 935 q 56 899 89 928 q 59 878 40 884 q 90 876 73 874 q 282 886 268 889 q 143 490 237 719 q 85 479 119 486 q 0 441 14 467 q 22 425 -7 426 q 58 427 41 424 q 121 437 95 434 q -100 -121 -59 5 q -43 -134 -109 -146 q 43 -94 35 -119 q 254 439 87 43 q 287 431 272 435 q 389 450 323 419 q 414 467 406 458 q 407 486 427 480 q 281 503 352 503 q 429 922 382 748 q 416 937 431 932 z "},"8":{"ha":506,"x_min":-66,"x_max":503,"o":"m 265 142 q 248 113 258 123 q 248 112 247 111 l 247 112 q 231 114 241 112 q 162 145 197 119 q 84 283 100 191 q 169 513 64 399 q 199 453 188 476 q 271 229 260 320 q 265 142 278 177 m 261 701 q 258 696 259 697 q 280 681 250 682 q 316 683 300 680 q 401 722 385 695 q 471 869 447 794 q 473 1019 503 965 q 313 1074 431 1092 q 131 988 205 1059 q 59 791 46 908 q 133 583 68 711 q -64 284 -62 439 q -7 130 -66 195 q 138 55 51 63 q 323 87 226 47 q 406 161 382 113 q 393 368 437 229 q 298 585 366 454 q 201 847 205 765 q 271 1008 197 943 q 282 1017 277 1013 q 283 1017 283 1017 q 314 996 296 1014 q 330 849 360 954 q 261 701 310 779 z "},"9":{"ha":487,"x_min":-43,"x_max":490,"o":"m 310 559 q 254 543 279 554 q 224 521 227 530 q 224 518 224 520 q 216 526 220 522 q 182 619 191 553 q 235 851 166 745 q 256 878 244 866 q 260 876 258 877 q 298 848 280 868 q 333 635 349 792 q 321 562 329 600 q 310 559 317 561 m 273 892 q 273 892 271 891 l 273 892 m 479 783 q 365 936 467 911 q 189 909 288 955 q 92 825 131 884 q 36 589 25 726 q 68 490 41 529 q 203 441 109 432 q 298 465 257 446 q 288 435 293 448 q 230 295 259 344 q 134 172 199 246 q 76 113 104 138 q 21 98 54 111 q -22 58 -43 75 q 35 47 -5 44 q 134 75 85 51 q 239 156 183 98 q 376 326 330 248 q 450 525 415 393 q 479 783 490 676 z "}," ":{"ha":300,"x_min":0,"x_max":0,"o":""},"!":{"ha":304,"x_min":-80,"x_max":279,"o":"m 134 1009 q 64 633 122 866 q 18 448 28 488 q -25 281 -27 276 q -3 265 -31 266 q 33 268 14 264 q 118 307 106 281 q 161 474 123 318 q 185 571 170 509 q 209 668 202 640 q 279 1048 266 898 q 257 1055 279 1055 q 208 1051 236 1057 q 134 1009 136 1038 m -71 150 q -21 50 -68 142 q 57 47 -11 29 q 97 62 78 53 q 124 88 130 77 q 74 189 77 181 q -4 191 64 209 q -71 150 -80 170 z "},"\"":{"ha":827,"x_min":-52,"x_max":441,"o":"m 23 1074 q 38 943 56 1012 q -35 833 21 879 q -32 813 -52 819 q -1 810 -17 808 q 96 844 61 815 q 180 967 159 896 q 168 1113 204 1044 q 84 1114 155 1137 q 39 1094 57 1105 q 23 1074 19 1082 m 260 1074 q 275 943 294 1012 q 203 833 258 879 q 205 813 186 819 q 237 810 220 808 q 334 844 298 815 q 418 967 396 896 q 406 1113 441 1044 q 321 1114 392 1137 q 276 1094 294 1105 q 260 1074 256 1082 z "},"#":{"ha":906,"x_min":0,"x_max":0,"o":""},"$":{"ha":688,"x_min":0,"x_max":0,"o":""},"%":{"ha":1092,"x_min":0,"x_max":0,"o":""},"&":{"ha":542,"x_min":-198,"x_max":465,"o":"m 113 233 q 73 188 96 211 q 52 168 64 178 q 40 159 47 164 q 39 157 40 158 q 38 157 39 157 q 35 155 38 157 q 26 158 30 156 q -46 262 -35 183 q -24 412 -57 338 q 69 531 7 482 q 169 309 93 456 q 113 233 140 266 m 193 785 q 248 899 203 843 q 268 920 255 908 q 285 814 313 886 q 202 697 264 758 q 189 685 197 692 q 193 785 184 738 m 417 578 q 321 545 344 572 q 259 457 292 510 q 201 613 218 545 q 220 624 212 618 q 344 720 294 669 q 427 840 404 783 q 404 969 460 921 q 216 962 345 1019 q 98 864 151 933 q 53 593 19 760 q -75 509 -36 541 q -167 384 -136 459 q -191 230 -198 309 q -122 115 -184 151 q 16 100 -68 84 q 216 214 127 121 q 274 58 257 127 q 352 53 279 34 q 418 96 424 72 q 316 342 396 187 q 371 431 337 375 q 417 506 410 494 q 437 537 427 522 q 446 549 441 542 q 451 556 450 555 q 448 577 465 572 q 417 578 437 581 z "},"'":{"ha":827,"x_min":-24,"x_max":231,"o":"m 50 1074 q 65 943 83 1012 q -7 833 48 879 q -5 813 -24 819 q 26 810 10 808 q 123 844 88 815 q 208 967 186 896 q 195 1113 231 1044 q 111 1114 182 1137 q 66 1094 84 1105 q 50 1074 46 1082 z "},"(":{"ha":514,"x_min":0,"x_max":0,"o":""},")":{"ha":514,"x_min":0,"x_max":0,"o":""},"*":{"ha":694,"x_min":0,"x_max":0,"o":""},"+":{"ha":688,"x_min":0,"x_max":0,"o":""},",":{"ha":276,"x_min":-26,"x_max":229,"o":"m 48 144 q 63 14 81 82 q -9 -96 46 -51 q -7 -117 -26 -111 q 24 -119 8 -121 q 121 -85 86 -114 q 205 38 184 -34 q 193 183 229 115 q 109 185 180 208 q 64 165 82 176 q 48 144 44 153 z "},"-":{"ha":454,"x_min":0,"x_max":0,"o":""},".":{"ha":827,"x_min":1,"x_max":211,"o":"m 10 150 q 60 50 14 142 q 138 47 71 29 q 178 62 159 53 q 205 88 211 77 q 155 189 158 181 q 77 191 146 209 q 10 150 1 170 z "},"/":{"ha":386,"x_min":0,"x_max":0,"o":""},":":{"ha":264,"x_min":-80,"x_max":241,"o":"m -71 150 q -21 50 -68 142 q 57 47 -11 29 q 97 62 78 53 q 124 88 130 77 q 74 189 77 181 q -4 191 64 209 q -71 150 -80 170 m 40 654 q 90 554 43 647 q 168 552 100 534 q 208 566 189 557 q 235 593 241 581 q 184 693 188 686 q 106 695 176 714 q 40 654 31 675 z "},";":{"ha":272,"x_min":-87,"x_max":248,"o":"m -13 144 q 2 14 20 82 q -71 -96 -15 -51 q -68 -117 -87 -111 q -37 -119 -53 -121 q 60 -85 25 -114 q 144 38 123 -34 q 132 183 168 115 q 48 185 119 208 q 3 165 21 176 q -13 144 -17 153 m 47 654 q 97 554 50 647 q 176 552 108 534 q 216 566 196 557 q 242 593 248 581 q 192 693 195 686 q 114 695 183 714 q 47 654 38 675 z "},"<":{"ha":688,"x_min":0,"x_max":0,"o":""},"=":{"ha":688,"x_min":0,"x_max":0,"o":""},">":{"ha":688,"x_min":0,"x_max":0,"o":""},"?":{"ha":546,"x_min":-39,"x_max":553,"o":"m 157 818 q 156 899 119 849 q 245 972 180 932 q 258 979 250 975 q 260 981 260 980 q 282 991 270 985 q 278 989 280 990 q 269 987 277 989 q 294 995 280 989 q 307 998 298 996 q 309 998 309 999 q 325 1002 314 1000 q 330 1002 326 1002 q 336 1003 338 1003 q 353 1003 342 1003 q 375 998 364 1002 q 294 799 454 962 q 79 568 114 614 q 16 355 -2 460 q 92 350 20 332 q 161 393 165 368 q 197 557 147 473 q 307 690 229 610 q 502 899 472 859 q 543 1010 553 967 q 431 1061 531 1062 q 251 1029 353 1061 q 241 1025 248 1027 q 233 1023 239 1024 q 202 1010 228 1021 q 143 980 180 1001 q 26 890 67 937 q 20 769 -39 818 q 113 778 41 751 q 157 818 177 801 m -24 140 q 21 24 11 45 q 99 22 31 4 q 165 64 176 43 q 121 178 156 84 q 43 180 113 199 q -24 140 -32 161 z "},"@":{"ha":1369,"x_min":0,"x_max":0,"o":""},"A":{"ha":532,"x_min":-155,"x_max":461,"o":"m 254 381 q 154 386 243 380 q 240 611 195 506 q 311 772 256 650 q 290 385 309 707 q 254 381 273 383 m 433 1046 q 377 1049 415 1056 q 292 1010 313 1038 q 195 809 273 985 q 146 697 182 777 q 97 585 115 626 q 18 384 56 490 q -138 334 -73 373 q -153 313 -155 323 q -130 302 -150 303 q -31 328 -78 301 q -12 330 -17 330 q 0 330 -6 330 q -64 119 -32 233 q -5 105 -71 94 q 50 123 24 111 q 79 144 77 135 q 133 323 106 239 q 182 323 162 321 q 287 325 252 331 q 276 -28 276 117 q 298 -37 276 -37 q 349 -33 320 -39 q 421 11 421 -18 q 441 524 421 182 q 461 1038 461 866 q 433 1046 461 1046 z "},"B":{"ha":498,"x_min":-85,"x_max":471,"o":"m 279 234 q 245 201 270 221 q 231 191 241 198 q 220 184 225 188 q 210 178 209 178 q 189 169 201 174 q 181 165 187 168 q 170 161 180 165 q 161 158 169 161 q 153 155 154 156 q 134 151 144 153 q 117 147 132 149 q 112 146 117 147 q 100 144 115 146 q 81 143 93 144 q 66 143 83 143 q 109 346 73 169 q 168 365 141 351 q 195 377 180 371 q 196 378 195 378 q 197 378 196 378 q 217 386 205 382 q 218 387 218 386 l 219 387 q 227 389 221 387 q 235 391 235 391 q 243 392 239 391 q 252 393 248 393 q 252 393 252 393 q 257 393 254 393 q 262 393 260 393 q 267 392 263 393 q 290 382 279 389 q 313 325 313 367 q 279 234 313 278 m 242 554 q 125 416 193 475 q 165 567 139 475 q 256 922 238 822 q 314 784 308 871 q 242 554 321 684 m 274 445 q 380 573 334 502 q 458 836 470 711 q 347 1003 446 951 q 86 1010 245 1057 q 19 969 14 989 q 98 966 26 945 q 111 970 115 972 q 117 972 117 971 q 120 972 119 972 q 127 972 124 972 q 124 964 125 968 q 22 541 109 843 q -31 332 -12 420 q -79 106 -81 102 q -50 90 -85 88 q -31 85 -43 85 q 283 156 122 79 q 457 354 444 232 q 274 445 471 481 z "},"C":{"ha":496,"x_min":-20,"x_max":524,"o":"m 482 1010 q 322 1045 439 1074 q 163 951 227 1022 q 20 628 63 840 q -18 304 -9 483 q -6 125 -20 174 q 129 23 21 28 q 249 46 191 20 q 345 121 308 73 q 415 282 382 170 q 357 295 422 307 q 302 278 328 290 q 273 256 275 265 q 221 124 248 173 q 197 89 210 104 q 128 205 140 115 q 127 350 125 229 q 168 676 136 528 q 316 985 214 890 q 320 989 317 986 q 366 890 356 964 q 352 739 373 830 q 318 589 319 593 q 354 579 316 576 q 396 586 380 582 q 463 627 459 603 q 484 726 468 661 q 505 826 500 793 q 482 1010 524 948 z "},"D":{"ha":435,"x_min":-97,"x_max":455,"o":"m 451 819 q 363 1063 447 996 q 228 1097 317 1101 q 5 1025 129 1093 q -10 1005 -14 1015 q 13 994 -7 995 q 115 1021 62 993 q 119 1023 117 1022 q 131 1029 123 1025 q 142 1034 135 1031 q 156 1039 145 1036 l 157 1039 q 157 1039 157 1040 q 160 1040 158 1040 q 168 1039 163 1040 q 170 1039 168 1039 q 175 1038 175 1038 q 193 1034 183 1037 q 194 1034 194 1034 q 195 1034 194 1034 q 202 1030 197 1032 q 216 1022 208 1027 q 241 1000 229 1014 q 277 943 261 981 q 283 557 336 801 q 178 274 248 400 q 102 169 142 211 q 64 133 85 150 q 218 987 172 600 q 197 995 218 994 q 148 991 175 996 q 73 949 76 978 q -91 56 26 550 q -33 43 -97 31 q 22 60 -3 48 q 47 75 41 69 q 112 95 74 79 q 365 392 267 160 q 451 819 455 605 z "},"E":{"ha":399,"x_min":-108,"x_max":505,"o":"m 437 1023 q 249 1008 366 1046 q 43 789 99 959 q 26 557 9 685 q 62 453 35 493 q -9 400 20 432 q -97 170 -108 291 q -43 62 -90 102 q 79 31 -3 28 q 231 77 161 34 q 336 195 306 123 q 314 212 342 210 q 278 209 297 212 q 193 170 203 195 q 139 92 174 121 q 136 90 138 91 q 131 91 132 91 q 116 97 124 93 q 84 120 100 104 q 48 209 56 149 q 101 384 39 288 q 119 408 109 396 q 168 398 140 400 q 256 418 208 396 q 283 452 298 437 q 212 485 254 479 q 205 494 208 490 q 174 580 184 524 q 173 767 155 678 q 275 961 199 896 q 290 972 281 966 q 291 972 291 972 q 302 972 304 971 q 348 904 359 964 q 406 891 343 880 q 461 908 436 897 q 491 930 489 921 q 437 1023 505 1002 z "},"F":{"ha":392,"x_min":-75,"x_max":555,"o":"m 534 1006 q 258 990 425 1020 q 259 996 258 991 q 260 1001 260 999 q 203 1015 267 1026 q 148 998 173 1009 q 118 975 121 985 q 113 957 119 977 q 88 935 94 947 q 103 920 81 923 q -73 75 -23 445 q -37 66 -75 62 q 5 73 -12 68 q 72 113 68 90 q 130 453 94 276 q 228 460 123 452 q 325 494 292 465 q 321 515 340 509 q 291 517 309 519 q 140 503 179 509 q 245 941 181 703 q 414 951 346 960 q 515 969 462 944 q 541 987 530 976 q 534 1006 555 1003 z "},"G":{"ha":426,"x_min":-71,"x_max":454,"o":"m 281 387 q 285 389 282 387 q 281 387 282 387 l 281 387 m 435 998 q 264 1015 398 1074 q 151 911 208 990 q 63 761 105 846 q -56 349 -28 577 q -69 191 -68 256 q -28 67 -71 98 q 130 73 17 34 q 253 153 194 96 q 335 284 304 201 q 355 359 349 323 q 351 413 361 397 q 267 427 333 441 q 134 363 195 412 q 136 343 116 349 q 168 340 151 339 q 213 349 191 342 q 195 267 214 322 q 151 173 176 212 q 143 163 146 166 q 123 141 132 151 q 101 121 114 132 q 91 136 96 127 q 76 206 79 159 q 85 354 75 235 q 198 772 104 570 q 298 944 250 882 q 311 885 309 915 q 293 833 312 847 q 296 813 276 819 q 327 810 311 808 q 424 844 387 815 q 454 918 454 868 q 435 998 454 960 z "},"H":{"ha":529,"x_min":-77,"x_max":552,"o":"m 489 1034 q 433 1017 458 1029 q 404 996 406 1004 q 339 743 384 911 q 275 489 294 574 q 143 466 210 481 q 204 736 163 565 q 267 1006 250 929 q 209 1019 272 1031 q 154 1002 179 1014 q 124 981 126 989 q 60 703 107 905 q -3 425 18 528 q -20 420 -16 420 q -52 404 -35 414 q -63 379 -77 388 q -13 376 -46 369 q -57 64 -45 206 q -35 57 -58 58 q 14 61 -14 56 q 87 103 85 75 q 133 416 100 245 q 188 427 153 421 q 262 437 225 433 q 208 60 216 227 q 230 52 208 52 q 279 56 251 50 q 353 98 351 70 q 401 444 361 254 q 460 467 435 451 q 475 488 478 478 q 452 498 473 497 q 413 498 435 498 q 479 760 434 589 q 547 1021 527 938 q 489 1034 552 1046 z "},"I":{"ha":247,"x_min":-58,"x_max":258,"o":"m 109 913 q 24 490 85 804 q -19 278 0 367 q -58 81 -58 94 q -36 73 -58 73 q 14 77 -14 71 q 87 120 86 92 q 103 210 87 149 q 126 313 111 239 q 169 525 143 393 q 252 939 228 830 q 194 952 258 964 q 139 935 164 947 q 109 913 111 922 z "},"J":{"ha":278,"x_min":-311,"x_max":257,"o":"m 113 1069 q 66 610 106 876 q 1 189 21 311 q -59 -18 -29 65 q -111 -137 -83 -86 q -134 -172 -121 -155 q -142 -155 -138 -164 q -147 -27 -170 -88 q -205 -14 -138 -2 q -290 -53 -280 -28 q -290 -183 -311 -112 q -199 -251 -270 -250 q -33 -193 -104 -252 q 35 -102 1 -165 q 123 137 81 -18 q 164 358 139 193 q 257 1107 248 861 q 235 1116 257 1115 q 186 1112 214 1117 q 113 1069 113 1097 z "},"K":{"ha":510,"x_min":-67,"x_max":614,"o":"m 551 1011 q 496 994 521 1006 q 466 972 467 981 q 317 677 441 844 q 152 482 251 586 q 166 559 162 538 q 299 940 218 825 q 277 955 309 954 q 241 954 256 956 q 156 914 176 941 q 22 526 75 799 q -18 323 -17 328 q -66 87 -65 111 q -45 79 -67 81 q 4 84 -24 79 q 79 127 77 98 q 125 348 81 155 q 184 202 157 286 q 222 -29 224 75 q 245 -38 222 -37 q 295 -33 267 -39 q 368 9 368 -19 q 329 241 369 111 q 235 445 291 363 q 456 696 366 577 q 608 998 583 865 q 551 1011 614 1023 z "},"L":{"ha":291,"x_min":-87,"x_max":267,"o":"m 212 39 q 65 56 109 37 q 260 958 150 512 q 203 970 267 982 q 148 954 173 965 q 118 931 120 941 q -79 26 7 486 q -81 12 -87 17 q -81 3 -81 9 q -83 -5 -82 -1 q -21 -10 -85 -21 q 118 -19 28 -22 q 220 8 178 -18 q 236 29 238 19 q 212 39 233 39 z "},"M":{"ha":738,"x_min":-104,"x_max":715,"o":"m 673 944 q 614 950 669 960 q 529 911 545 938 q 349 518 442 764 l 349 528 q 333 954 349 613 q 309 964 332 962 q 254 966 295 973 q 169 926 183 953 q -103 58 -43 538 q -66 50 -104 46 q -24 56 -42 52 q 42 97 39 73 q 198 709 82 418 q 204 498 203 587 q 197 285 205 345 q 178 73 178 157 q 245 69 178 53 q 321 106 313 86 q 440 403 369 210 q 555 701 518 614 q 535 385 559 578 q 498 68 502 115 q 519 60 498 61 q 569 64 541 60 q 644 107 641 78 q 667 317 649 183 q 692 526 686 467 q 673 944 715 772 z "},"N":{"ha":544,"x_min":-62,"x_max":628,"o":"m 562 1090 q 507 1074 532 1085 q 477 1052 479 1061 q 328 431 389 770 q 308 547 319 481 q 274 762 279 723 q 240 928 259 889 q 239 930 240 929 l 239 932 q 239 932 239 932 q 181 945 243 957 q 126 928 151 940 q 96 906 98 915 q 14 496 78 795 q -60 83 -40 237 q -24 75 -62 71 q 18 81 1 77 q 85 122 82 98 q 159 530 104 274 q 163 508 162 515 q 202 276 184 380 q 250 63 228 127 q 290 52 256 49 q 354 67 321 54 q 416 107 412 83 q 620 1078 492 667 q 562 1090 628 1103 z "},"O":{"ha":451,"x_min":-45,"x_max":441,"o":"m 291 648 q 252 378 279 505 q 135 108 212 183 q 119 134 126 117 q 102 268 100 175 q 161 621 104 435 q 280 865 211 782 q 292 805 288 842 q 291 648 299 746 m 383 969 q 290 960 363 986 q 242 926 240 942 q 199 903 217 918 q 36 646 102 826 q -37 320 -18 499 q -43 180 -45 243 q -3 60 -39 96 q 58 39 16 41 q 194 71 112 37 q 313 178 262 98 q 391 385 360 250 q 425 584 412 475 q 441 789 441 723 q 383 969 439 920 z "},"P":{"ha":540,"x_min":-70,"x_max":615,"o":"m 561 903 q 461 1023 532 981 q 308 1063 396 1061 q 83 1026 208 1064 q 16 985 11 1004 q 94 983 22 961 q 132 994 113 989 q 138 995 133 994 q 144 996 143 996 q 157 999 151 998 q 174 1002 163 1000 q 184 1003 175 1002 q 204 1004 191 1004 q 214 1004 205 1004 q 341 966 286 1004 q 424 840 401 923 q 431 686 443 769 q 289 430 407 513 q 279 423 285 427 q 278 423 280 424 q 275 422 277 422 q 269 421 269 422 q 251 422 259 421 q 176 503 184 433 q 166 511 176 509 q 168 519 167 514 q 170 527 169 525 q 255 942 223 841 q 197 956 263 967 q 142 939 167 950 q 112 916 115 926 q 24 492 80 815 q -21 281 1 357 q -69 79 -65 128 q -47 71 -70 71 q 1 75 -26 70 q 76 117 73 88 q 125 316 79 159 q 138 367 132 340 q 286 378 201 357 q 538 593 455 418 q 561 903 615 758 z "},"Q":{"ha":510,"x_min":-64,"x_max":498,"o":"m 100 327 q 153 610 122 491 q 284 890 203 797 q 304 909 292 898 q 335 818 326 873 q 325 595 350 727 q 143 169 277 336 q 136 159 139 164 q 103 149 117 155 q 92 185 96 162 q 100 327 86 221 m 479 -172 q 412 -161 476 -152 q 406 -161 409 -163 q 407 -162 406 -161 q 394 -159 402 -161 q 357 -136 378 -153 q 296 -50 324 -109 q 234 127 282 -22 q 307 208 271 157 q 412 410 364 288 q 478 650 458 528 q 479 867 498 776 q 397 996 458 957 q 302 996 370 1013 q 269 983 288 992 q 256 960 242 968 q 258 958 254 961 q 222 943 237 952 q 45 709 111 878 q -33 399 -1 590 q -51 276 -39 367 q -50 133 -64 179 q 96 71 -23 54 q 163 -105 134 -55 q 240 -190 196 -164 q 409 -208 300 -224 q 479 -172 484 -196 z "},"R":{"ha":525,"x_min":-56,"x_max":569,"o":"m 361 637 q 257 451 346 545 q 214 412 238 431 q 202 402 208 407 q 155 412 180 411 q 225 900 211 693 q 275 867 252 886 q 349 764 326 827 q 361 637 372 703 m 66 926 q 67 926 66 926 q 66 926 66 926 m 555 31 q 331 272 483 85 q 253 366 264 353 q 341 420 298 386 q 496 627 460 513 q 500 783 520 707 q 417 913 479 859 q 88 977 294 1019 q 56 970 75 975 q -12 928 -18 951 q 65 926 -5 908 q 77 928 72 927 q 84 928 81 928 q -50 94 73 657 q 7 80 -56 68 q 63 98 38 85 q 93 119 91 111 q 132 299 122 254 q 132 299 132 299 q 133 298 133 298 q 212 201 144 286 q 418 -18 342 39 q 512 -9 441 -35 q 545 6 530 -3 q 555 31 569 21 z "},"S":{"ha":532,"x_min":-59,"x_max":567,"o":"m 478 618 q 543 813 523 693 q 517 1008 567 951 q 414 1038 489 1042 q 233 980 321 1031 q 48 733 109 907 q 48 452 -13 558 q 214 353 77 401 q 290 322 270 334 q 342 260 334 297 q 318 155 352 221 q 273 96 300 121 q 245 75 261 85 q 236 69 238 71 q 224 63 230 66 q 221 62 233 67 q 228 64 222 62 q 219 63 224 63 q 209 63 218 62 q 189 67 204 63 q 124 109 154 75 q 94 178 102 133 q 106 243 83 227 q 123 264 125 258 q 98 275 121 274 q -5 247 36 276 q -51 186 -43 218 q -43 110 -59 152 q 70 12 -16 37 q 284 36 158 -14 q 441 148 385 76 q 487 247 478 195 q 459 347 497 309 q 377 395 433 374 q 331 410 362 400 q 289 425 302 420 q 208 472 236 446 q 168 572 178 500 q 243 869 149 715 q 334 970 284 937 q 349 979 339 974 q 353 981 348 979 q 356 983 352 981 q 357 983 353 981 q 342 980 350 981 q 343 980 345 980 l 345 980 q 359 977 351 979 q 370 970 360 976 q 380 960 376 964 q 399 920 392 945 q 404 818 410 882 q 335 593 392 687 q 357 578 326 578 q 393 580 376 576 q 478 618 462 592 z "},"T":{"ha":354,"x_min":-103,"x_max":473,"o":"m 452 930 q 257 951 357 949 q 200 954 248 962 q 179 949 191 952 q -30 920 73 943 q -96 878 -103 903 q -20 876 -92 859 q -18 876 -19 876 q -15 877 -16 876 q 8 881 -7 878 q 47 886 24 884 q 108 891 75 890 q -72 77 -33 430 q -50 69 -73 71 q -1 73 -29 68 q 73 116 71 87 q 241 888 111 450 q 332 875 288 884 q 433 894 375 867 q 458 911 449 901 q 452 930 473 926 z "},"U":{"ha":477,"x_min":-77,"x_max":498,"o":"m 418 945 q 351 903 355 928 q 330 716 346 865 q 304 528 318 600 q 155 189 264 314 q 130 160 140 172 q 100 330 104 210 q 186 709 94 479 q 270 926 254 878 q 212 939 279 951 q 127 900 136 925 q 56 715 111 854 q -12 526 9 597 q -21 136 -77 304 q 9 89 -11 104 q 96 81 32 69 q 286 200 196 100 q 445 535 402 330 q 474 738 460 613 q 496 942 492 908 q 460 951 498 955 q 418 945 435 949 z "},"V":{"ha":477,"x_min":51,"x_max":519,"o":"m 509 952 q 431 957 504 975 q 363 913 358 939 q 357 793 374 862 q 340 734 351 771 q 322 676 326 690 q 262 473 286 545 q 197 305 228 371 q 198 947 200 888 q 175 957 198 956 q 125 952 153 958 q 53 908 52 937 q 55 503 58 761 q 53 97 51 212 q 112 90 53 79 q 191 122 166 100 q 403 492 314 231 q 465 703 426 562 q 509 952 519 897 z "},"W":{"ha":829,"x_min":41,"x_max":889,"o":"m 486 145 q 484 144 485 144 q 486 145 485 144 l 486 145 l 486 145 m 865 1097 q 786 1102 859 1122 q 720 1059 713 1082 q 743 919 740 986 q 732 766 745 871 q 675 496 711 609 q 587 290 647 405 q 583 281 589 292 q 574 967 574 449 q 553 977 574 976 q 504 971 532 978 q 429 928 433 956 q 333 488 393 669 q 216 235 283 340 q 201 591 189 352 q 206 789 201 613 q 248 971 209 911 q 227 986 257 985 q 190 984 205 987 q 105 945 123 972 q 62 772 68 888 q 59 671 60 737 q 56 571 58 603 q 104 92 41 236 q 163 85 111 76 q 242 117 220 96 q 432 395 357 228 q 444 112 435 241 q 490 103 446 96 q 542 115 519 108 q 707 275 634 147 q 808 490 770 381 q 873 778 848 606 q 888 941 889 889 q 865 1097 888 1012 z "},"X":{"ha":441,"x_min":-148,"x_max":548,"o":"m 542 987 q 464 989 536 1009 q 230 804 318 950 q 229 802 229 803 q 227 800 228 800 q 220 829 224 815 q 122 983 187 952 q 28 974 92 996 q -3 957 15 968 q -15 933 -30 940 q 76 785 44 906 q 113 556 94 721 q 115 547 113 559 q 106 527 109 532 q 17 332 68 427 q -45 223 -18 269 q -77 172 -61 196 q -92 151 -83 162 q -103 135 -98 141 q -130 102 -148 113 q -30 111 -104 85 q 28 146 7 123 q 93 240 53 174 q 155 349 125 293 q 262 82 205 172 q 347 81 277 58 q 392 102 374 91 q 407 121 411 115 q 299 393 351 209 q 260 578 273 484 q 301 682 289 653 q 448 924 374 857 q 473 944 459 935 q 477 946 473 944 l 478 947 q 542 987 548 966 z "},"Y":{"ha":527,"x_min":-8,"x_max":578,"o":"m 552 1053 q 475 1057 549 1075 q 407 1014 403 1040 q 403 755 425 892 q 302 494 376 593 q 262 453 287 474 q 244 440 255 447 q 237 435 245 441 l 236 435 q 236 435 236 435 q 222 432 229 434 l 221 433 q 220 433 220 433 q 210 435 216 433 q 206 436 209 435 q 203 437 205 436 q 145 585 144 463 q 241 1006 145 720 q 182 1019 249 1031 q 98 980 106 1005 q 1 581 12 723 q 43 405 -8 458 q 130 374 70 376 q 160 374 144 373 q 102 104 155 311 q 160 90 96 79 q 216 107 191 96 q 245 130 243 120 q 305 411 299 342 q 310 413 309 413 q 528 701 467 479 q 552 1053 578 882 z "},"Z":{"ha":430,"x_min":-172,"x_max":592,"o":"m 574 1006 q 292 1010 425 1025 q 18 930 121 993 q 3 909 0 919 q 26 899 5 899 q 128 926 81 897 q 138 932 141 934 q 147 936 142 934 q 157 939 147 936 q 159 940 158 940 q 170 943 165 942 q 175 944 170 943 q 182 946 180 945 q 204 950 192 948 q 243 955 218 953 q 395 953 324 963 q 119 529 321 804 q -163 104 -81 257 q -139 87 -172 88 q 65 107 -100 86 q 225 97 185 123 q 319 106 250 81 q 351 121 335 112 q 362 146 376 137 q 155 168 304 184 q 79 152 133 165 q 61 150 76 152 q 36 147 50 149 q 30 146 35 147 q 313 568 111 293 q 586 991 510 838 q 574 1006 592 1002 z "},"[":{"ha":514,"x_min":0,"x_max":0,"o":""},"\\":{"ha":386,"x_min":0,"x_max":0,"o":""},"]":{"ha":514,"x_min":0,"x_max":0,"o":""},"^":{"ha":688,"x_min":0,"x_max":0,"o":""},"_":{"ha":694,"x_min":0,"x_max":0,"o":""},"`":{"ha":694,"x_min":0,"x_max":0,"o":""},"a":{"ha":470,"x_min":-75,"x_max":463,"o":"m 153 270 q 96 194 108 208 q 88 211 92 203 q 81 375 66 272 q 133 553 93 456 q 168 624 148 588 q 197 663 180 646 q 237 698 214 680 q 239 699 238 699 q 243 702 240 700 q 254 709 247 705 q 255 710 254 709 q 272 631 275 693 q 313 624 271 621 q 281 481 302 570 q 153 270 244 393 m 463 682 q 417 690 463 696 q 378 766 415 750 q 218 750 321 791 q 19 587 77 694 q -68 245 -75 414 q -18 116 -66 147 q 64 109 5 101 q 167 150 120 117 q 220 197 193 168 q 209 91 212 141 q 231 83 208 84 q 279 87 252 82 q 353 130 351 101 q 422 505 361 254 q 463 682 459 595 z "},"b":{"ha":454,"x_min":-79,"x_max":477,"o":"m 290 484 q 218 310 273 406 q 172 237 199 276 q 148 206 161 224 q 135 191 136 192 q 94 149 117 170 q 81 138 88 143 q 81 138 81 138 q 77 175 67 151 q 91 214 90 213 q 136 448 98 300 q 191 680 168 569 q 192 686 191 677 q 222 705 211 694 q 224 707 220 703 q 271 659 250 694 q 290 484 310 588 m 421 684 q 332 764 395 746 q 208 759 277 780 q 241 904 226 843 q 256 960 245 920 q 270 1015 265 995 q 285 1119 289 1092 q 209 1124 281 1141 q 140 1080 136 1106 q 125 981 144 1056 q 110 920 120 960 q 94 859 99 878 q 43 625 77 789 q -14 394 28 555 q -39 283 -29 334 q -47 230 -43 262 q -57 170 -56 172 q -62 97 -79 117 q 1 69 -42 73 q 195 136 92 60 q 376 362 293 209 q 421 684 477 551 z "},"c":{"ha":460,"x_min":-77,"x_max":458,"o":"m 248 749 q 248 749 248 749 l 248 749 q 248 749 248 749 m 410 766 q 264 798 363 813 q 83 713 158 780 q -45 437 -14 626 q -22 138 -77 241 q 175 95 25 46 q 341 233 278 128 q 319 249 350 248 q 283 246 300 250 q 199 208 215 234 q 159 153 180 176 q 149 144 155 150 q 117 186 131 157 q 90 334 92 237 q 102 489 87 410 q 151 639 118 570 q 234 741 186 709 q 235 741 234 741 l 235 741 q 243 738 239 740 q 271 720 256 732 q 312 610 312 683 q 276 515 312 555 q 279 494 262 499 q 310 492 291 490 q 407 526 382 498 q 456 646 454 578 q 410 766 458 716 z "},"d":{"ha":483,"x_min":-73,"x_max":564,"o":"m 101 243 q 113 488 77 339 q 217 709 149 635 q 230 721 222 715 q 233 718 231 720 q 277 599 268 688 q 301 589 277 589 q 262 372 286 509 q 223 155 234 213 q 191 132 201 146 q 188 128 191 132 q 170 138 179 132 q 101 243 121 170 m 499 1104 q 444 1087 469 1099 q 414 1065 417 1074 q 342 784 376 937 q 282 789 316 793 q 147 745 211 782 q -21 494 35 682 q -42 200 -73 319 q 50 81 -20 117 q 243 88 129 39 q 271 92 254 89 q 326 109 301 97 q 356 131 354 122 q 557 1090 507 927 q 499 1104 564 1116 z "},"e":{"ha":424,"x_min":-52,"x_max":417,"o":"m 117 465 q 134 538 125 503 q 180 644 154 589 q 210 692 193 669 q 223 708 215 700 q 225 710 221 707 q 232 706 228 709 q 265 623 259 686 q 248 474 273 568 q 117 465 169 472 m 94 124 q 94 124 94 124 q 92 123 94 124 q 94 124 94 123 m 243 726 q 243 726 243 726 q 243 726 243 726 l 243 726 m 410 656 q 373 750 406 718 q 239 769 336 787 q 96 700 149 753 q 30 600 59 664 q -39 366 -16 520 q -52 208 -52 277 q 19 78 -52 96 q 148 94 65 66 q 243 149 197 111 q 338 302 323 214 q 281 316 342 327 q 226 299 250 311 q 196 277 197 286 q 144 168 186 221 q 120 144 135 157 q 99 186 107 155 q 94 295 90 220 q 109 416 98 362 q 192 420 139 420 q 275 420 260 419 q 332 432 298 420 q 378 461 373 448 q 410 656 417 576 z "},"f":{"ha":291,"x_min":-92,"x_max":501,"o":"m 323 1041 q 351 980 337 1021 q 429 978 358 956 q 494 1023 501 1000 q 416 1122 467 1105 q 325 1114 387 1131 q 241 1073 276 1099 q 101 852 147 1002 q 83 792 92 823 q -1 778 39 787 q -85 736 -72 762 q -62 721 -92 721 q -26 725 -43 721 q 67 739 17 734 q 12 503 31 608 q -36 83 -39 200 q -14 75 -36 75 q 36 81 8 75 q 107 127 108 98 q 148 498 104 229 q 199 741 170 631 q 278 739 227 741 q 357 735 334 736 q 458 766 410 734 q 473 787 475 778 q 449 797 469 796 q 216 801 267 802 q 317 1034 264 958 q 323 1041 319 1036 z "},"g":{"ha":515,"x_min":-99,"x_max":514,"o":"m 227 197 q 174 143 200 163 q 168 138 172 142 q 99 212 123 149 q 86 302 85 248 q 138 504 82 394 q 281 702 191 621 q 281 702 281 702 q 288 697 285 700 q 311 661 300 687 q 343 650 317 649 q 282 283 320 553 q 227 197 257 234 m 454 787 q 395 768 416 779 q 305 764 362 779 q 107 638 194 738 q -56 260 -52 467 q -12 115 -60 166 q 115 74 36 64 q 252 125 180 81 q 219 -17 237 47 q 169 -144 198 -93 q 134 -194 154 -172 q 125 -203 132 -197 q 106 -196 117 -201 q 56 -145 69 -180 q 74 -3 43 -113 q 16 7 81 23 q -67 -36 -60 -10 q -86 -191 -99 -151 q -29 -252 -74 -231 q 54 -269 9 -269 q 252 -188 164 -268 q 332 -67 297 -146 q 388 129 356 -14 q 425 362 406 210 q 460 568 452 512 q 513 777 504 699 l 513 777 q 513 777 513 777 q 513 777 512 777 q 513 781 513 779 q 513 784 513 783 q 486 792 514 794 q 454 787 469 791 z "},"h":{"ha":515,"x_min":-46,"x_max":496,"o":"m 484 726 q 382 772 467 785 q 262 728 315 763 q 190 654 224 701 q 299 1112 231 842 q 241 1124 305 1136 q 186 1107 211 1119 q 157 1086 159 1095 q -44 87 1 473 q 22 84 -46 69 q 100 119 90 99 q 158 286 106 135 q 253 533 210 437 q 340 690 301 642 q 348 631 346 673 q 327 423 350 571 q 283 261 321 380 q 250 97 251 160 q 273 88 250 90 q 322 93 294 87 q 395 136 394 108 q 446 345 395 184 q 475 483 461 394 q 490 607 486 557 q 484 726 496 685 z "},"i":{"ha":257,"x_min":-63,"x_max":276,"o":"m 89 725 q 17 406 62 576 q -28 249 -2 336 q -57 100 -63 130 q 20 96 -52 77 q 87 139 92 114 q 115 275 82 166 q 159 432 138 353 q 231 751 203 598 q 174 764 235 775 q 118 747 143 758 q 89 725 90 734 m 72 923 q 121 883 101 903 q 158 879 128 876 q 214 892 186 882 q 258 932 276 913 q 208 972 237 952 q 172 976 198 978 q 115 963 144 973 q 83 947 98 957 q 72 923 58 932 z "},"j":{"ha":247,"x_min":-401,"x_max":298,"o":"m 92 734 q 12 415 50 634 q -64 54 -33 157 q -130 -106 -92 -34 q -173 -172 -154 -151 q -198 -196 -182 -184 q -205 -201 -199 -197 q -210 -204 -208 -203 q -197 -200 -209 -203 q -181 -197 -193 -199 l -183 -197 q -186 -197 -182 -197 q -222 -175 -204 -193 q -237 -48 -258 -137 q -294 -35 -231 -24 q -349 -52 -324 -41 q -379 -75 -377 -65 q -370 -209 -401 -161 q -269 -256 -339 -256 q -76 -191 -162 -254 q 22 -62 -24 -153 q 129 289 88 68 q 197 650 189 616 q 234 760 213 710 q 212 777 240 776 q 176 774 195 777 q 92 734 102 760 m 128 915 q 132 911 130 913 q 127 916 131 911 q 140 897 130 912 q 155 880 149 886 q 163 876 159 878 q 191 876 177 873 q 248 888 218 878 q 288 909 275 898 q 291 913 289 911 q 294 917 293 916 q 291 928 298 924 q 287 932 289 930 l 291 928 q 278 946 288 931 q 264 964 270 958 q 256 967 258 966 q 227 968 241 969 q 171 955 200 965 q 131 933 144 945 q 125 926 128 930 q 128 915 121 919 z "},"k":{"ha":460,"x_min":-94,"x_max":479,"o":"m 195 677 q 226 699 205 686 q 241 708 232 703 q 256 715 245 710 q 264 719 258 716 q 272 722 271 722 q 279 725 276 724 q 290 727 279 724 q 292 726 291 726 q 313 715 302 724 q 321 657 330 699 q 278 570 313 613 q 197 493 244 526 q 178 481 190 488 q 177 481 178 481 q 127 484 159 490 q 160 645 128 488 q 160 646 160 645 q 161 646 161 646 q 195 677 174 661 m 376 525 q 456 633 438 585 q 460 730 479 698 q 380 765 441 763 q 228 736 316 767 q 178 715 203 727 q 210 881 203 846 q 235 989 218 922 q 262 1098 256 1072 q 204 1111 268 1122 q 149 1094 174 1105 q 119 1072 121 1081 q 92 964 113 1044 q 66 855 75 896 q 42 728 57 809 q 18 601 25 637 q 14 597 12 594 q 2 580 7 588 q 10 566 -4 570 q -41 340 -15 443 q -94 100 -92 133 q -72 92 -94 93 q -22 96 -50 91 q 51 139 50 111 q 90 327 54 208 q 183 92 126 256 q 279 -142 237 -64 q 363 -144 293 -167 q 410 -123 391 -134 q 425 -103 429 -111 q 318 159 382 -26 q 206 418 258 334 q 237 431 221 424 q 376 525 309 460 z "},"l":{"ha":249,"x_min":-75,"x_max":303,"o":"m 151 1074 q 24 585 80 884 q -70 87 -66 103 q -12 74 -75 62 q 43 91 18 79 q 73 113 71 104 q 294 1099 300 1116 q 236 1113 303 1125 q 151 1074 160 1099 z "},"m":{"ha":709,"x_min":-87,"x_max":700,"o":"m 682 756 q 612 771 663 776 q 430 688 504 761 q 428 741 432 718 q 335 790 418 800 q 218 751 272 782 q 189 730 203 743 q 191 772 191 751 q 168 781 191 781 q 118 777 146 783 q 45 733 45 762 q -10 406 45 609 q -85 82 -74 170 q -26 75 -87 64 q 30 93 5 81 q 60 115 58 106 q 100 269 67 161 q 184 508 138 397 q 284 700 236 633 q 277 597 290 669 q 248 470 270 555 q 206 208 243 449 q 195 168 199 187 q 186 102 188 138 q 254 98 184 85 q 330 135 324 112 q 349 236 340 178 q 385 328 361 275 q 450 484 435 445 q 511 629 481 574 q 549 688 530 665 q 551 690 548 686 q 553 642 555 673 q 512 431 548 572 q 460 218 469 262 q 448 118 456 191 q 432 18 441 54 q 490 5 426 -6 q 545 22 520 11 q 575 45 573 35 q 593 153 585 83 q 608 262 602 231 q 665 494 606 257 q 699 705 700 636 q 682 756 698 738 z "},"n":{"ha":536,"x_min":-54,"x_max":505,"o":"m 478 717 q 419 724 471 734 q 218 623 300 701 q 183 585 200 606 q 218 762 206 687 q 181 771 219 774 q 139 764 156 769 q 73 723 76 747 q 4 406 60 637 q -53 87 -44 208 q 14 83 -54 68 q 91 119 83 98 q 223 447 176 353 q 320 603 272 545 q 347 632 332 618 q 329 319 368 539 q 243 -97 274 13 q 302 -110 237 -122 q 357 -93 332 -104 q 387 -71 385 -80 q 473 353 417 39 q 498 543 494 467 q 478 717 505 651 z "},"o":{"ha":441,"x_min":-73,"x_max":395,"o":"m 188 273 q 125 165 161 212 q 102 140 115 153 q 83 189 90 156 q 117 492 62 293 q 171 642 140 575 q 195 688 182 667 q 242 534 238 634 q 188 273 248 410 m 288 772 q 195 764 261 787 q 153 741 168 755 q 104 721 123 734 q 16 589 56 688 q -47 377 -24 494 q -65 172 -73 253 q 7 72 -56 80 q 132 89 66 64 q 239 157 195 113 q 354 359 311 229 q 389 582 395 479 q 288 772 382 720 z "},"p":{"ha":491,"x_min":-163,"x_max":456,"o":"m 296 571 q 243 351 284 477 q 146 140 199 214 q 59 127 123 151 q 53 125 56 127 q 149 541 136 485 q 197 630 173 591 q 242 692 220 667 q 264 714 252 702 q 277 705 271 711 q 300 640 295 689 q 296 571 302 613 m 435 724 q 315 777 413 780 q 188 740 250 774 q 190 750 189 743 q 192 760 191 756 q 134 773 196 785 q 79 756 104 768 q 49 734 50 743 q 5 516 31 635 q -16 471 -3 498 q -7 456 -20 460 q -85 121 -16 417 q -159 -216 -133 -83 q -101 -229 -163 -241 q -45 -212 -71 -224 q -16 -190 -18 -199 q 40 71 6 -79 q 107 62 68 58 q 250 120 194 71 q 361 305 307 170 q 430 541 404 414 q 435 724 456 670 z "},"q":{"ha":454,"x_min":-112,"x_max":457,"o":"m 192 278 q 135 171 166 216 q 106 136 122 152 q 100 130 104 134 q 91 135 98 131 q 52 188 62 150 q 68 335 38 242 q 155 517 96 420 q 269 669 209 606 q 300 699 283 684 q 305 704 299 699 q 251 451 287 618 q 192 278 224 355 m 81 117 q 78 115 79 115 q 82 117 77 115 l 81 117 m 404 767 q 345 776 406 785 q -6 461 159 749 q -92 243 -75 341 q -54 90 -112 132 q 50 68 -17 64 q 176 104 117 73 q 115 -230 139 -81 q 172 -243 111 -254 q 228 -226 203 -238 q 258 -204 256 -213 q 392 470 295 25 q 453 753 418 566 q 404 767 457 775 z "},"r":{"ha":388,"x_min":-81,"x_max":412,"o":"m 369 715 q 272 717 338 732 q 182 674 223 705 q 182 673 182 674 q 181 673 182 673 q 182 751 186 715 q 158 762 181 760 q 107 755 136 762 q 37 712 35 739 q -13 436 43 663 q -32 342 -22 397 q -79 106 -68 234 q -79 100 -79 100 q -12 96 -81 82 q 65 132 58 109 q 111 363 79 184 q 258 629 161 515 q 256 575 262 607 q 214 463 247 526 q 163 391 186 411 q 166 370 146 376 q 197 368 180 366 q 294 402 261 374 q 359 494 326 429 q 403 622 393 558 q 369 715 412 689 z "},"s":{"ha":432,"x_min":-98,"x_max":415,"o":"m 360 562 q 412 694 415 639 q 368 753 411 733 q 291 770 336 768 q 119 724 195 774 q 27 579 37 669 q 63 458 20 524 q 103 404 77 437 q 142 353 134 365 q 176 131 253 199 q 155 119 168 124 q 177 125 165 123 q 176 127 184 127 q 113 156 148 129 q 73 219 79 181 q 88 292 67 256 q 66 307 96 306 q 31 304 47 308 q -55 266 -39 292 q -49 132 -98 193 q 87 68 -3 75 q 302 139 198 61 q 355 250 359 182 q 304 368 351 296 q 221 481 307 363 q 172 591 176 543 q 216 709 165 661 q 222 715 221 715 q 227 719 227 720 q 231 722 229 720 q 202 712 217 714 q 201 712 189 711 q 202 711 191 711 q 262 675 246 709 q 217 536 284 630 q 239 521 208 522 q 275 522 260 519 q 360 562 340 534 z "},"t":{"ha":394,"x_min":-56,"x_max":390,"o":"m 364 759 q 234 761 310 761 q 298 948 260 845 q 241 961 308 973 q 155 922 165 947 q 99 759 123 835 q 64 759 79 759 q -39 731 5 759 q -54 711 -56 720 q -31 701 -52 701 q 81 702 0 701 q 31 494 50 593 q 16 399 25 457 q 3 305 5 323 q 14 132 -15 198 q 98 71 41 71 q 264 136 200 71 q 365 349 350 224 q 343 355 366 355 q 294 351 322 357 q 219 309 223 338 q 161 163 211 239 q 141 237 146 193 q 155 388 136 280 q 170 481 158 407 q 186 575 178 539 q 217 702 199 636 q 270 701 248 701 q 372 728 323 698 q 387 748 390 739 q 364 759 385 758 z "},"u":{"ha":500,"x_min":-71,"x_max":492,"o":"m 347 718 q 157 345 317 639 q 85 225 121 277 q 239 749 100 513 q 217 765 248 764 q 181 762 197 766 q 96 724 111 750 q -61 97 -71 441 q -48 88 -57 89 q 146 155 58 76 q 274 324 206 208 q 290 351 281 336 q 224 77 282 316 q 283 63 219 52 q 338 81 313 68 q 368 102 366 94 q 490 751 477 564 q 423 754 492 769 q 347 718 354 739 z "},"v":{"ha":430,"x_min":24,"x_max":493,"o":"m 429 759 q 343 720 355 746 q 186 382 245 511 q 176 359 182 373 q 176 741 169 618 q 154 749 176 748 q 104 745 132 750 q 31 702 32 730 q 28 395 24 585 q 35 90 35 156 q 94 83 34 72 q 172 115 155 94 q 323 394 228 179 q 486 746 355 467 q 464 762 493 761 q 429 759 446 762 z "},"w":{"ha":683,"x_min":-14,"x_max":686,"o":"m 656 772 q 579 777 652 795 q 511 733 506 758 q 467 378 539 588 q 401 233 439 300 q 406 298 406 288 q 407 459 408 326 q 411 638 406 587 q 456 793 437 718 q 393 804 462 818 q 313 768 325 789 q 267 610 277 705 q 191 409 234 509 q 141 303 166 353 q 159 752 158 761 q 134 763 158 762 q 83 757 113 764 q 14 713 11 740 q 5 395 26 616 q 8 77 -14 189 q 67 70 12 60 q 152 109 132 82 q 262 286 210 188 q 262 267 262 275 q 258 66 255 84 q 299 58 261 54 q 387 84 349 62 q 607 397 524 168 q 656 772 686 616 z "},"x":{"ha":437,"x_min":-115,"x_max":540,"o":"m 488 776 q 391 742 429 771 q 212 557 298 669 q 163 767 180 707 q 85 771 157 791 q 18 728 12 751 q 58 559 35 668 q 96 390 83 438 q -106 79 -83 111 q -84 64 -115 65 q -47 65 -62 62 q 37 104 18 77 q 137 254 81 163 q 219 92 171 163 q 304 92 235 68 q 349 113 331 102 q 364 131 368 125 q 242 422 288 243 q 522 753 385 646 q 519 773 540 767 q 488 776 504 777 z "},"y":{"ha":487,"x_min":-134,"x_max":454,"o":"m 311 720 q 254 553 294 689 q 178 311 205 385 q 132 203 155 249 q 110 165 121 182 q 104 263 104 179 q 228 760 102 515 q 206 777 235 775 q 170 774 188 777 q 85 734 98 761 q -31 355 0 568 q -41 174 -41 289 q 20 84 -42 99 q 179 117 88 67 q 210 139 195 125 q 176 20 193 71 q 60 -203 123 -141 q 45 -193 53 -200 q 22 -71 12 -165 q 24 -60 23 -65 q -12 -50 26 -47 q -54 -57 -37 -53 q -121 -98 -118 -74 q -106 -227 -134 -187 q 46 -263 -65 -285 q 195 -189 139 -245 q 269 -79 234 -149 q 354 168 317 18 q 433 529 414 412 q 454 752 454 654 q 387 755 454 774 q 311 720 321 738 z "},"z":{"ha":460,"x_min":-83,"x_max":476,"o":"m 476 734 q 415 748 437 745 q 389 749 401 750 q 319 742 361 747 q 249 732 262 734 q 179 728 205 728 q 130 735 146 728 q 37 726 100 749 q 5 710 22 722 q -7 686 -22 693 q 159 673 43 663 q 269 686 173 674 q 90 404 245 655 q -16 252 67 366 q -59 116 -83 159 q 67 85 -35 73 q 217 87 170 97 q 319 106 258 78 q 344 123 334 113 q 336 142 357 138 q 166 146 269 157 q 82 136 94 135 q 179 284 114 194 q 281 430 257 391 q 476 734 448 698 z "},"|":{"ha":688,"x_min":290,"x_max":398,"o":"m 290 1069 l 398 1069 l 398 -283 l 290 -283 l 290 1069 z "},"~":{"ha":688,"x_min":64,"x_max":626,"o":"m 626 595 l 626 490 q 543 424 583 441 q 465 406 503 406 q 344 439 424 406 q 224 472 264 472 q 152 453 190 472 q 64 377 113 434 l 64 483 q 147 550 107 532 q 224 568 187 568 q 348 534 268 568 q 465 500 427 500 q 538 519 500 500 q 626 595 576 538 z "},"¡":{"ha":456,"x_min":0,"x_max":0,"o":""},"¢":{"ha":772,"x_min":0,"x_max":0,"o":""},"¤":{"ha":688,"x_min":83,"x_max":604,"o":"m 237 380 q 304 341 265 353 q 344 336 324 336 q 383 341 363 336 q 450 380 422 353 q 489 447 477 408 q 495 486 495 467 q 489 526 495 506 q 450 593 477 565 q 382 631 422 620 q 343 637 363 637 q 304 631 323 637 q 237 593 264 619 q 199 526 211 566 q 193 486 193 506 q 199 448 193 467 q 237 380 210 408 m 163 612 l 83 692 l 137 747 l 217 667 q 284 699 247 688 q 345 708 314 708 q 401 700 372 708 q 470 667 439 688 l 550 747 l 604 692 l 525 613 q 557 544 546 582 q 566 486 566 515 q 557 429 566 458 q 525 359 546 391 l 604 280 l 550 225 l 470 305 q 401 273 439 283 q 344 264 373 264 q 286 273 315 264 q 217 305 248 283 l 137 225 l 83 280 l 163 359 q 130 429 141 391 q 122 486 122 458 q 131 545 122 516 q 163 612 142 583 z "},"¦":{"ha":688,"x_min":290,"x_max":398,"o":"m 290 252 l 398 252 l 398 -283 l 290 -283 l 290 252 m 290 1070 l 398 1070 l 398 535 l 290 535 l 290 1070 z "},"¨":{"ha":694,"x_min":142,"x_max":536,"o":"m 151 874 l 199 923 q 216 931 208 931 q 235 922 224 931 l 281 872 q 288 855 288 863 q 280 837 288 846 l 233 786 q 216 774 222 774 q 199 783 207 774 l 148 841 q 142 857 142 849 q 151 874 142 865 m 399 874 l 447 923 q 464 931 456 931 q 482 922 471 931 l 529 872 q 536 855 536 863 q 528 838 536 846 l 481 786 q 464 774 469 774 q 447 783 454 774 l 395 842 q 389 857 389 849 q 399 874 389 865 z "},"ª":{"ha":439,"x_min":0,"x_max":0,"o":""},"«":{"ha":640,"x_min":118,"x_max":572,"o":"m 118 325 l 350 530 l 359 530 l 359 505 l 220 325 l 359 144 l 359 119 l 350 119 l 118 325 m 330 325 l 562 530 l 572 530 l 572 505 l 433 325 l 572 144 l 572 119 l 562 119 l 330 325 z "},"¬":{"ha":688,"x_min":59,"x_max":629,"o":"m 59 520 l 629 520 l 629 187 l 628 186 l 562 186 l 562 452 l 59 452 l 59 520 z "},"¯":{"ha":454,"x_min":0,"x_max":0,"o":""},"°":{"ha":457,"x_min":41,"x_max":418,"o":"m 230 930 q 130 889 172 930 q 88 789 88 848 q 130 689 88 730 q 230 648 171 648 q 330 689 289 648 q 370 789 370 730 q 329 889 370 848 q 230 930 288 930 m 230 978 q 363 923 308 978 q 418 789 418 867 q 362 656 418 712 q 229 601 307 601 q 95 656 149 601 q 41 789 41 711 q 96 923 41 868 q 230 978 151 978 z "},"±":{"ha":688,"x_min":0,"x_max":0,"o":""},"²":{"ha":688,"x_min":0,"x_max":0,"o":""},"³":{"ha":688,"x_min":0,"x_max":0,"o":""},"´":{"ha":694,"x_min":214,"x_max":527,"o":"m 412 932 q 449 964 435 956 q 477 972 463 972 q 513 959 499 972 q 527 924 527 945 q 516 896 527 909 q 485 869 506 882 l 261 731 l 214 731 l 412 932 z "},"µ":{"ha":800,"x_min":0,"x_max":0,"o":""},"¶":{"ha":694,"x_min":63,"x_max":630,"o":"m 630 973 l 630 926 l 544 926 l 544 0 l 488 0 l 488 926 l 376 926 l 376 0 l 319 0 l 319 500 q 132 570 201 506 q 63 736 63 634 q 136 908 63 843 q 330 973 209 973 l 630 973 z "},"·":{"ha":345,"x_min":87,"x_max":257,"o":"m 98 502 l 154 559 q 174 568 164 568 q 195 557 182 568 l 249 499 q 257 479 257 488 q 248 458 257 469 l 193 399 q 174 385 180 385 q 154 395 163 385 l 94 463 q 87 481 87 472 q 98 502 87 491 z "},"¸":{"ha":694,"x_min":244,"x_max":521,"o":"m 244 -197 q 347 -232 302 -232 q 411 -217 392 -232 q 431 -172 431 -203 q 397 -129 431 -142 q 328 -118 370 -118 q 305 -119 317 -118 l 338 0 l 380 0 l 355 -71 q 397 -67 377 -68 q 488 -95 456 -67 q 521 -172 521 -122 q 481 -253 521 -223 q 372 -283 441 -283 q 244 -262 298 -283 l 244 -197 z "},"¹":{"ha":688,"x_min":0,"x_max":0,"o":""},"º":{"ha":487,"x_min":0,"x_max":0,"o":""},"»":{"ha":640,"x_min":68,"x_max":522,"o":"m 78 119 l 68 119 l 68 144 l 208 325 l 68 505 l 68 530 l 78 530 l 310 325 l 78 119 m 290 119 l 281 119 l 281 144 l 420 325 l 281 505 l 281 530 l 290 530 l 522 325 l 290 119 z "},"¼":{"ha":1158,"x_min":0,"x_max":0,"o":""},"½":{"ha":1332,"x_min":0,"x_max":0,"o":""},"¾":{"ha":1158,"x_min":0,"x_max":0,"o":""},"¿":{"ha":507,"x_min":0,"x_max":0,"o":""},"À":{"ha":1044,"x_min":0,"x_max":0,"o":""},"Á":{"ha":1044,"x_min":0,"x_max":0,"o":""},"Â":{"ha":1044,"x_min":0,"x_max":0,"o":""},"Ã":{"ha":1044,"x_min":0,"x_max":0,"o":""},"Ä":{"ha":1044,"x_min":0,"x_max":0,"o":""},"Å":{"ha":1044,"x_min":0,"x_max":0,"o":""},"Æ":{"ha":1436,"x_min":0,"x_max":0,"o":""},"Ç":{"ha":949,"x_min":0,"x_max":0,"o":""},"È":{"ha":781,"x_min":0,"x_max":0,"o":""},"É":{"ha":781,"x_min":0,"x_max":0,"o":""},"Ê":{"ha":781,"x_min":0,"x_max":0,"o":""},"Ë":{"ha":781,"x_min":0,"x_max":0,"o":""},"Ì":{"ha":446,"x_min":0,"x_max":0,"o":""},"Í":{"ha":446,"x_min":0,"x_max":0,"o":""},"Î":{"ha":446,"x_min":0,"x_max":0,"o":""},"Ï":{"ha":446,"x_min":0,"x_max":0,"o":""},"Ð":{"ha":1029,"x_min":0,"x_max":0,"o":""},"Ñ":{"ha":1054,"x_min":0,"x_max":0,"o":""},"Ò":{"ha":1095,"x_min":0,"x_max":0,"o":""},"Ó":{"ha":1095,"x_min":0,"x_max":0,"o":""},"Ô":{"ha":1095,"x_min":0,"x_max":0,"o":""},"Õ":{"ha":1095,"x_min":0,"x_max":0,"o":""},"Ö":{"ha":1095,"x_min":0,"x_max":0,"o":""},"×":{"ha":688,"x_min":109,"x_max":578,"o":"m 344 419 l 176 252 l 109 319 l 277 486 l 109 654 l 176 721 l 344 553 l 512 721 l 578 654 l 411 486 l 578 319 l 511 252 l 344 419 z "},"Ø":{"ha":1095,"x_min":0,"x_max":0,"o":""},"Ù":{"ha":1018,"x_min":0,"x_max":0,"o":""},"Ú":{"ha":1018,"x_min":0,"x_max":0,"o":""},"Û":{"ha":1018,"x_min":0,"x_max":0,"o":""},"Ü":{"ha":1018,"x_min":0,"x_max":0,"o":""},"Ý":{"ha":836,"x_min":0,"x_max":0,"o":""},"Þ":{"ha":760,"x_min":0,"x_max":0,"o":""},"ß":{"ha":848,"x_min":0,"x_max":0,"o":""},"à":{"ha":625,"x_min":0,"x_max":0,"o":""},"á":{"ha":625,"x_min":0,"x_max":0,"o":""},"â":{"ha":625,"x_min":0,"x_max":0,"o":""},"ã":{"ha":625,"x_min":0,"x_max":0,"o":""},"ä":{"ha":625,"x_min":0,"x_max":0,"o":""},"å":{"ha":625,"x_min":0,"x_max":0,"o":""},"æ":{"ha":986,"x_min":0,"x_max":0,"o":""},"ç":{"ha":614,"x_min":0,"x_max":0,"o":""},"è":{"ha":616,"x_min":0,"x_max":0,"o":""},"é":{"ha":616,"x_min":0,"x_max":0,"o":""},"ê":{"ha":616,"x_min":0,"x_max":0,"o":""},"ë":{"ha":616,"x_min":0,"x_max":0,"o":""},"ì":{"ha":349,"x_min":0,"x_max":0,"o":""},"í":{"ha":349,"x_min":0,"x_max":0,"o":""},"î":{"ha":349,"x_min":0,"x_max":0,"o":""},"ï":{"ha":349,"x_min":0,"x_max":0,"o":""},"ð":{"ha":772,"x_min":0,"x_max":0,"o":""},"ñ":{"ha":751,"x_min":0,"x_max":0,"o":""},"ò":{"ha":685,"x_min":0,"x_max":0,"o":""},"ó":{"ha":685,"x_min":0,"x_max":0,"o":""},"ô":{"ha":685,"x_min":0,"x_max":0,"o":""},"õ":{"ha":685,"x_min":0,"x_max":0,"o":""},"ö":{"ha":685,"x_min":0,"x_max":0,"o":""},"÷":{"ha":688,"x_min":59,"x_max":629,"o":"m 59 439 l 59 534 l 628 534 l 629 533 l 629 439 l 59 439 m 270 277 l 326 334 q 345 343 336 343 q 366 332 354 343 l 420 274 q 429 254 429 263 q 419 233 429 244 l 365 174 q 345 160 351 160 q 326 170 334 160 l 266 238 q 259 256 259 247 q 270 277 259 266 m 270 747 l 326 804 q 345 813 336 813 q 366 802 354 813 l 420 744 q 429 724 429 733 q 419 703 429 714 l 365 644 q 345 630 351 630 q 326 640 334 630 l 266 708 q 259 726 259 717 q 270 747 259 736 z "},"ø":{"ha":685,"x_min":0,"x_max":0,"o":""},"ù":{"ha":718,"x_min":0,"x_max":0,"o":""},"ú":{"ha":718,"x_min":0,"x_max":0,"o":""},"û":{"ha":718,"x_min":0,"x_max":0,"o":""},"ü":{"ha":718,"x_min":0,"x_max":0,"o":""},"ý":{"ha":589,"x_min":0,"x_max":0,"o":""},"þ":{"ha":685,"x_min":0,"x_max":0,"o":""},"ÿ":{"ha":589,"x_min":0,"x_max":0,"o":""},"ı":{"ha":349,"x_min":13,"x_max":321,"o":"m 222 151 q 290 34 222 34 l 321 34 l 321 0 l 22 0 l 22 34 l 53 34 q 121 151 121 34 l 121 444 q 45 496 121 496 l 13 496 l 13 526 q 190 650 163 573 l 222 650 l 222 151 z "},"ˆ":{"ha":694,"x_min":150,"x_max":545,"o":"m 150 732 l 307 972 l 387 972 l 545 732 l 505 732 l 347 878 l 189 732 l 150 732 z "},"ˇ":{"ha":694,"x_min":150,"x_max":545,"o":"m 150 972 l 189 972 l 347 827 l 505 972 l 545 972 l 387 731 l 307 731 l 150 972 z "},"ˉ":{"ha":694,"x_min":172,"x_max":522,"o":"m 172 810 l 172 895 l 522 895 l 522 810 l 172 810 z "},"˘":{"ha":694,"x_min":149,"x_max":545,"o":"m 149 915 l 183 915 q 234 842 195 865 q 347 819 273 819 q 460 842 421 819 q 510 915 498 865 l 545 915 q 481 778 531 825 q 347 732 431 732 q 214 779 264 732 q 149 915 163 825 z "},"˙":{"ha":694,"x_min":277,"x_max":422,"o":"m 286 874 l 333 923 q 342 929 337 927 q 351 931 347 931 q 360 929 355 931 q 368 923 364 927 l 416 871 q 421 865 420 869 q 422 855 422 861 q 420 845 422 849 q 415 837 419 841 l 367 785 q 356 776 359 778 q 351 774 353 774 q 340 776 345 774 q 333 782 336 778 l 282 841 q 278 847 279 844 q 277 857 277 851 q 279 865 277 861 q 286 874 281 869 z "},"˚":{"ha":694,"x_min":227,"x_max":468,"o":"m 279 852 q 298 804 279 824 q 347 785 318 785 q 395 804 375 785 q 414 852 414 824 q 394 900 414 880 q 347 920 374 920 q 299 900 319 920 q 279 852 279 880 m 227 852 q 262 938 227 903 q 347 972 296 972 q 433 938 398 972 q 468 852 468 903 q 433 767 468 802 q 347 732 398 732 q 262 767 296 732 q 227 852 227 802 z "},"˛":{"ha":694,"x_min":250,"x_max":500,"o":"m 434 0 q 359 -81 386 -42 q 332 -157 332 -120 q 351 -208 332 -189 q 400 -227 369 -227 q 447 -217 427 -227 q 481 -184 467 -206 l 500 -195 q 438 -260 475 -237 q 357 -283 401 -283 q 280 -259 310 -283 q 250 -198 250 -235 q 291 -92 250 -146 q 401 0 332 -37 l 434 0 z "},"˜":{"ha":694,"x_min":159,"x_max":548,"o":"m 548 937 q 502 833 534 867 q 416 798 469 798 l 413 798 q 336 814 379 798 q 259 830 292 830 q 218 816 233 830 q 195 768 203 802 l 159 768 q 205 875 172 840 q 292 911 238 911 q 369 895 323 910 q 445 879 412 879 l 448 879 q 487 892 472 879 q 511 937 502 906 l 548 937 z "},"˝":{"ha":694,"x_min":147,"x_max":547,"o":"m 147 732 l 245 917 q 276 960 261 947 q 307 972 290 972 q 340 959 326 972 q 353 927 353 945 q 346 903 353 916 q 326 876 339 890 l 186 732 l 147 732 m 340 732 l 438 917 q 469 960 454 947 q 500 972 484 972 q 533 959 519 972 q 547 927 547 945 q 539 903 547 916 q 519 876 532 890 l 380 732 l 340 732 z "},"–":{"ha":751,"x_min":38,"x_max":713,"o":"m 38 284 l 38 366 l 713 366 l 713 284 l 38 284 z "},"—":{"ha":1389,"x_min":0,"x_max":1389,"o":"m 0 284 l 0 366 l 1389 366 l 1389 284 l 0 284 z "},"‘":{"ha":827,"x_min":-28,"x_max":227,"o":"m 153 793 q 138 923 119 854 q 210 1034 155 987 q 208 1053 227 1048 q 176 1057 193 1058 q 79 1022 115 1051 q -5 899 17 970 q 7 753 -28 822 q 91 752 20 729 q 137 772 119 761 q 153 793 157 785 z "},"’":{"ha":827,"x_min":-31,"x_max":224,"o":"m 43 1006 q 58 876 77 944 q -14 765 41 811 q -12 745 -31 751 q 20 742 3 741 q 117 777 81 747 q 201 899 179 828 q 189 1045 224 977 q 104 1046 175 1069 q 59 1026 77 1038 q 43 1006 39 1014 z "},"‚":{"ha":827,"x_min":-47,"x_max":426,"o":"m 28 77 q 43 -54 61 14 q -30 -164 26 -119 q -27 -184 -47 -178 q 4 -187 -12 -189 q 101 -153 66 -182 q 185 -30 163 -102 q 173 115 209 47 q 89 117 159 140 q 43 97 62 109 q 28 77 24 85 m 245 77 q 260 -54 278 14 q 187 -164 243 -119 q 190 -184 170 -178 q 221 -187 205 -189 q 318 -153 283 -182 q 402 -30 380 -102 q 390 115 426 47 q 306 117 376 140 q 260 97 279 109 q 245 77 241 85 z "},"“":{"ha":827,"x_min":-31,"x_max":448,"o":"m 43 1006 q 58 876 77 944 q -14 765 41 811 q -12 745 -31 751 q 20 742 3 741 q 117 777 81 747 q 201 899 179 828 q 189 1045 224 977 q 104 1046 175 1069 q 59 1026 77 1038 q 43 1006 39 1014 m 267 1006 q 282 876 300 944 q 210 765 265 811 q 212 745 193 751 q 243 742 227 741 q 340 777 305 747 q 425 899 403 828 q 412 1045 448 977 q 328 1046 399 1069 q 283 1026 301 1038 q 267 1006 263 1014 z "},"”":{"ha":827,"x_min":-24,"x_max":455,"o":"m 50 1006 q 65 876 83 944 q -7 765 48 811 q -5 745 -24 751 q 26 742 10 741 q 123 777 88 747 q 208 899 186 828 q 195 1045 231 977 q 111 1046 182 1069 q 66 1026 84 1038 q 50 1006 46 1014 m 274 1006 q 289 876 307 944 q 216 765 272 811 q 219 745 199 751 q 250 742 234 741 q 347 777 312 747 q 431 899 410 828 q 419 1045 455 977 q 335 1046 406 1069 q 290 1026 308 1038 q 274 1006 270 1014 z "},"„":{"ha":617,"x_min":81,"x_max":491,"o":"m 161 191 q 221 146 191 191 q 252 43 252 102 q 203 -110 252 -31 q 109 -190 155 -190 l 109 -161 q 168 -32 159 -132 q 81 77 168 49 l 81 106 l 161 191 m 401 191 q 461 146 431 191 q 491 43 491 102 q 443 -110 491 -31 q 349 -190 395 -190 l 349 -161 q 408 -32 398 -132 q 320 77 408 49 l 320 106 l 401 191 z "},"†":{"ha":688,"x_min":48,"x_max":640,"o":"m 330 693 q 293 814 324 759 q 254 901 254 882 q 279 955 254 935 q 344 975 303 975 q 408 956 382 975 q 433 907 433 937 q 396 814 433 886 q 359 693 365 757 q 479 730 424 699 q 566 768 547 768 q 620 744 600 768 q 640 679 640 720 q 622 615 640 640 q 572 589 603 589 q 480 627 551 589 q 359 665 422 658 q 433 477 364 546 q 357 -183 361 165 l 332 -183 q 254 477 328 165 q 330 665 323 546 q 209 628 264 659 q 121 589 140 589 q 68 614 88 589 q 48 679 48 638 q 67 743 48 718 q 115 768 85 768 q 208 730 137 768 q 330 693 266 699 z "},"‡":{"ha":688,"x_min":47,"x_max":640,"o":"m 358 126 q 479 165 422 134 q 572 202 550 202 q 621 177 602 202 q 640 113 640 151 q 619 47 640 72 q 566 23 599 23 q 478 62 547 23 q 358 98 423 93 q 395 -23 364 35 q 433 -116 433 -94 q 407 -164 433 -146 q 343 -183 382 -183 q 278 -163 302 -183 q 254 -110 254 -143 q 292 -22 254 -91 q 329 98 323 33 q 208 61 265 92 q 115 23 136 23 q 66 48 85 23 q 47 113 47 74 q 67 178 47 153 q 121 202 87 202 q 208 163 140 202 q 329 126 264 133 q 254 396 323 279 q 329 665 323 512 q 208 628 264 659 q 121 589 140 589 q 67 614 87 589 q 47 679 47 638 q 66 743 47 718 q 115 768 85 768 q 208 730 136 768 q 329 693 265 699 q 292 814 323 759 q 254 901 254 882 q 278 955 254 935 q 343 975 302 975 q 407 956 382 975 q 433 907 433 937 q 395 814 433 886 q 358 693 364 757 q 478 730 423 699 q 566 768 547 768 q 619 744 599 768 q 640 679 640 720 q 621 615 640 640 q 572 589 602 589 q 479 627 550 589 q 358 665 422 658 q 433 396 363 512 q 358 126 363 279 z "},"•":{"ha":694,"x_min":146,"x_max":548,"o":"m 146 487 q 205 629 146 570 q 348 687 264 687 q 489 628 431 687 q 548 487 548 570 q 489 345 548 404 q 347 286 429 286 q 205 345 263 286 q 146 487 146 404 z "},"…":{"ha":1389,"x_min":87,"x_max":1183,"o":"m 98 113 l 154 170 q 174 180 164 180 q 195 169 182 180 l 249 111 q 257 91 257 100 q 248 70 257 81 l 193 10 q 174 -3 180 -3 q 154 6 163 -3 l 94 75 q 87 92 87 83 q 98 113 87 102 m 562 113 l 617 170 q 637 180 627 180 q 658 169 646 180 l 712 111 q 720 91 720 100 q 711 70 720 81 l 656 10 q 637 -3 643 -3 q 617 6 626 -3 l 557 75 q 551 92 551 83 q 562 113 551 102 m 1025 113 l 1080 170 q 1100 180 1090 180 q 1121 169 1109 180 l 1175 111 q 1183 91 1183 100 q 1174 70 1183 81 l 1120 10 q 1100 -3 1106 -3 q 1080 6 1089 -3 l 1021 75 q 1014 92 1014 83 q 1025 113 1014 102 z "},"‹":{"ha":428,"x_min":118,"x_max":359,"o":"m 118 325 l 350 530 l 359 530 l 359 505 l 220 325 l 359 144 l 359 119 l 350 119 l 118 325 z "},"›":{"ha":428,"x_min":68,"x_max":310,"o":"m 78 119 l 68 119 l 68 144 l 208 325 l 68 505 l 68 530 l 78 530 l 310 325 l 78 119 z "},"⁄":{"ha":232,"x_min":-232,"x_max":463,"o":"m -232 -20 l 406 971 l 463 971 l -174 -20 l -232 -20 z "},"№":{"ha":1540,"x_min":0,"x_max":0,"o":""},"™":{"ha":1015,"x_min":0,"x_max":0,"o":""},"−":{"ha":688,"x_min":59,"x_max":629,"o":"m 59 439 l 59 534 l 628 534 l 629 533 l 629 439 l 59 439 z "},"≤":{"ha":688,"x_min":59,"x_max":629,"o":"m 629 728 l 205 485 l 629 244 l 629 131 l 59 457 l 59 513 l 629 842 l 629 728 m 59 1 l 59 96 l 628 96 l 629 95 l 629 1 l 59 1 z "},"≥":{"ha":688,"x_min":59,"x_max":629,"o":"m 59 842 l 629 513 l 629 457 l 59 131 l 59 244 l 483 485 l 59 728 l 59 842 m 59 1 l 59 96 l 628 96 l 629 96 l 629 1 l 59 1 z "},"":{"ha":728,"x_min":0,"x_max":0,"o":""},"":{"ha":733,"x_min":0,"x_max":0,"o":""}}}
